# xmcd
#
# Track frame offsets:
#	150
#	12507
#	25790
#	45652
#	63485
#	87375
#	110175
#	131902
#	159010
#	181387
#	203635
#
# Disc length: 2932 seconds
#
# Revision: 1
# Processed by: cddbd v1.5.1PL0 Copyright (c) Steve Scherf et al.
# Submitted via: audiograbber 1.83.01
#
DISCID=920b720b
DTITLE=Simply Red - After Hours
DYEAR=1992
DGENRE=Rock
TTITLE0=Grandma's Hands
TTITLE1=Lady Godiva's Room
TTITLE2=Holding Back The Years
TTITLE3=More
TTITLE4=Sad Old Red
TTITLE5=Groovy Situation
TTITLE6=It's Only Love
TTITLE7=Enough
TTITLE8=Something's Got Me Started
TTITLE9=Turn It Up
TTITLE10=Everytime We Say Goodbye
EXTD=
EXTT0=
EXTT1=
EXTT2=
EXTT3=
EXTT4=
EXTT5=
EXTT6=
EXTT7=
EXTT8=
EXTT9=
EXTT10=
PLAYORDER=
